<svg width="131" height="31" viewBox="0 0 131 31" fill="none" xmlns="http://www.w3.org/2000/svg">
<path d="M2.07741 25V6.09091H13.8033V8.54688H4.9304V14.3082H12.9631V16.755H4.9304V25H2.07741ZM22.1614 25.2862C20.7641 25.2862 19.5608 24.9877 18.5513 24.3906C17.548 23.7874 16.7724 22.9411 16.2246 21.8516C15.6829 20.7559 15.4121 19.4725 15.4121 18.0014C15.4121 16.5488 15.6829 15.2685 16.2246 14.1605C16.7724 13.0526 17.5357 12.1877 18.5144 11.5661C19.4992 10.9444 20.6503 10.6335 21.9675 10.6335C22.7677 10.6335 23.5433 10.7659 24.2942 11.0305C25.0452 11.2952 25.7192 11.7107 26.3162 12.277C26.9133 12.8433 27.3842 13.5788 27.7289 14.4837C28.0736 15.3823 28.2459 16.4749 28.2459 17.7614V18.7401H16.9725V16.6719H25.5407C25.5407 15.9455 25.3929 15.3023 25.0975 14.7422C24.802 14.1759 24.3865 13.7296 23.851 13.4034C23.3217 13.0772 22.7 12.9141 21.986 12.9141C21.2104 12.9141 20.5333 13.1049 19.9547 13.4865C19.3823 13.862 18.9391 14.3544 18.6252 14.9638C18.3174 15.567 18.1635 16.2225 18.1635 16.9304V18.5462C18.1635 19.4941 18.3297 20.3004 18.6621 20.9652C19.0007 21.63 19.4715 22.1378 20.0748 22.4886C20.678 22.8333 21.3828 23.0057 22.1891 23.0057C22.7123 23.0057 23.1893 22.9318 23.6202 22.7841C24.0511 22.6302 24.4235 22.4025 24.7374 22.1009C25.0513 21.7992 25.2914 21.4268 25.4576 20.9837L28.0705 21.4545C27.8612 22.224 27.4857 22.898 26.9441 23.4766C26.4086 24.049 25.7346 24.4953 24.9221 24.8153C24.1157 25.1293 23.1955 25.2862 22.1614 25.2862ZM37.4212 25.2862C36.0239 25.2862 34.8205 24.9877 33.8111 24.3906C32.8078 23.7874 32.0322 22.9411 31.4844 21.8516C30.9427 20.7559 30.6719 19.4725 30.6719 18.0014C30.6719 16.5488 30.9427 15.2685 31.4844 14.1605C32.0322 13.0526 32.7955 12.1877 33.7741 11.5661C34.759 10.9444 35.91 10.6335 37.2273 10.6335C38.0275 10.6335 38.803 10.7659 39.554 11.0305C40.3049 11.2952 40.9789 11.7107 41.576 12.277C42.1731 12.8433 42.6439 13.5788 42.9886 14.4837C43.3333 15.3823 43.5057 16.4749 43.5057 17.7614V18.7401H32.2322V16.6719H40.8004C40.8004 15.9455 40.6527 15.3023 40.3572 14.7422C40.0618 14.1759 39.6463 13.7296 39.1108 13.4034C38.5814 13.0772 37.9598 12.9141 37.2457 12.9141C36.4702 12.9141 35.7931 13.1049 35.2145 13.4865C34.642 13.862 34.1989 14.3544 33.8849 14.9638C33.5772 15.567 33.4233 16.2225 33.4233 16.9304V18.5462C33.4233 19.4941 33.5895 20.3004 33.9219 20.9652C34.2604 21.63 34.7313 22.1378 35.3345 22.4886C35.9377 22.8333 36.6425 23.0057 37.4489 23.0057C37.9721 23.0057 38.4491 22.9318 38.88 22.7841C39.3108 22.6302 39.6832 22.4025 39.9972 22.1009C40.3111 21.7992 40.5511 21.4268 40.7173 20.9837L43.3303 21.4545C43.121 22.224 42.7455 22.898 42.2038 23.4766C41.6683 24.049 40.9943 24.4953 40.1818 24.8153C39.3755 25.1293 38.4553 25.2862 37.4212 25.2862ZM51.8777 25.277C50.7328 25.277 49.711 24.9846 48.8123 24.3999C47.9198 23.8089 47.2181 22.9687 46.7072 21.8793C46.2025 20.7836 45.9501 19.4695 45.9501 17.9368C45.9501 16.4041 46.2056 15.093 46.7164 14.0036C47.2335 12.9141 47.9413 12.08 48.84 11.5014C49.7387 10.9228 50.7574 10.6335 51.8961 10.6335C52.7763 10.6335 53.4842 10.7812 54.0197 11.0767C54.5614 11.366 54.9799 11.7045 55.2754 12.0923C55.577 12.4801 55.8109 12.8217 55.9771 13.1172H56.1433V6.09091H58.9039V25H56.2079V22.7933H55.9771C55.8109 23.0949 55.5708 23.4396 55.2569 23.8274C54.9492 24.2152 54.5244 24.5537 53.9828 24.843C53.4411 25.1323 52.7394 25.277 51.8777 25.277ZM52.487 22.9226C53.2811 22.9226 53.952 22.7133 54.4998 22.2947C55.0538 21.87 55.4724 21.2822 55.7555 20.5312C56.0448 19.7803 56.1895 18.9062 56.1895 17.9091C56.1895 16.9242 56.0479 16.0625 55.7647 15.3239C55.4816 14.5852 55.0661 14.0097 54.5183 13.5973C53.9705 13.1849 53.2934 12.9787 52.487 12.9787C51.6561 12.9787 50.9636 13.1941 50.4096 13.625C49.8556 14.0559 49.4371 14.6437 49.1539 15.3885C48.877 16.1333 48.7385 16.9735 48.7385 17.9091C48.7385 18.857 48.88 19.7095 49.1632 20.4666C49.4463 21.2237 49.8649 21.8239 50.4189 22.267C50.979 22.7041 51.6684 22.9226 52.487 22.9226Z" fill="#8257E5"/>
<path d="M75.8626 12.0646C75.6841 11.5045 75.444 11.0028 75.1424 10.5597C74.8469 10.1103 74.493 9.72869 74.0806 9.41477C73.6682 9.0947 73.1973 8.85156 72.668 8.68537C72.1448 8.51918 71.5692 8.43608 70.9414 8.43608C69.8765 8.43608 68.9163 8.70999 68.0607 9.25781C67.2051 9.80563 66.5281 10.6089 66.0295 11.6676C65.5371 12.7202 65.2908 14.0097 65.2908 15.5362C65.2908 17.0689 65.5401 18.3646 66.0387 19.4233C66.5373 20.482 67.2205 21.2853 68.0884 21.8331C68.9563 22.3809 69.9442 22.6548 71.0522 22.6548C72.0801 22.6548 72.9757 22.4455 73.739 22.027C74.5084 21.6084 75.1024 21.0175 75.521 20.2543C75.9457 19.4848 76.158 18.58 76.158 17.5398L76.8967 17.6783H71.4862V15.3239H78.9187V17.4751C78.9187 19.0632 78.5801 20.442 77.9031 21.6115C77.2321 22.7749 76.3027 23.6735 75.1147 24.3075C73.9329 24.9415 72.5787 25.2585 71.0522 25.2585C69.341 25.2585 67.8391 24.8646 66.5465 24.0767C65.2601 23.2888 64.2567 22.1716 63.5366 20.7251C62.8164 19.2725 62.4563 17.549 62.4563 15.5547C62.4563 14.0466 62.6656 12.6925 63.0842 11.4922C63.5027 10.2919 64.0906 9.2732 64.8477 8.43608C65.6109 7.5928 66.5065 6.94957 67.5344 6.50639C68.5685 6.05705 69.698 5.83239 70.9229 5.83239C71.9447 5.83239 72.8957 5.98319 73.7759 6.2848C74.6623 6.58641 75.4502 7.0142 76.1396 7.56818C76.8351 8.12216 77.4106 8.78078 77.8661 9.54403C78.3216 10.3011 78.6294 11.1413 78.7894 12.0646H75.8626ZM88.4309 25.2862C87.0337 25.2862 85.8303 24.9877 84.8208 24.3906C83.8175 23.7874 83.042 22.9411 82.4941 21.8516C81.9525 20.7559 81.6816 19.4725 81.6816 18.0014C81.6816 16.5488 81.9525 15.2685 82.4941 14.1605C83.042 13.0526 83.8052 12.1877 84.7839 11.5661C85.7688 10.9444 86.9198 10.6335 88.237 10.6335C89.0372 10.6335 89.8128 10.7659 90.5637 11.0305C91.3147 11.2952 91.9887 11.7107 92.5858 12.277C93.1828 12.8433 93.6537 13.5788 93.9984 14.4837C94.3431 15.3823 94.5154 16.4749 94.5154 17.7614V18.7401H83.242V16.6719H91.8102C91.8102 15.9455 91.6625 15.3023 91.367 14.7422C91.0716 14.1759 90.6561 13.7296 90.1206 13.4034C89.5912 13.0772 88.9695 12.9141 88.2555 12.9141C87.4799 12.9141 86.8029 13.1049 86.2243 13.4865C85.6518 13.862 85.2086 14.3544 84.8947 14.9638C84.5869 15.567 84.4331 16.2225 84.4331 16.9304V18.5462C84.4331 19.4941 84.5993 20.3004 84.9316 20.9652C85.2702 21.63 85.7411 22.1378 86.3443 22.4886C86.9475 22.8333 87.6523 23.0057 88.4586 23.0057C88.9818 23.0057 89.4589 22.9318 89.8897 22.7841C90.3206 22.6302 90.693 22.4025 91.0069 22.1009C91.3208 21.7992 91.5609 21.4268 91.7271 20.9837L94.34 21.4545C94.1307 22.224 93.7553 22.898 93.2136 23.4766C92.6781 24.049 92.0041 24.4953 91.1916 24.8153C90.3852 25.1293 89.465 25.2862 88.4309 25.2862ZM104.199 10.8182V13.0341H96.4521V10.8182H104.199ZM98.5295 7.42045H101.29V20.8359C101.29 21.3714 101.37 21.7746 101.53 22.0455C101.69 22.3101 101.896 22.4917 102.149 22.5902C102.407 22.6825 102.687 22.7287 102.989 22.7287C103.211 22.7287 103.404 22.7133 103.571 22.6825C103.737 22.6518 103.866 22.6271 103.958 22.6087L104.457 24.8892C104.297 24.9508 104.069 25.0123 103.774 25.0739C103.478 25.1416 103.109 25.1785 102.666 25.1847C101.94 25.197 101.262 25.0677 100.635 24.7969C100.007 24.526 99.4989 24.1075 99.1112 23.5412C98.7234 22.9749 98.5295 22.264 98.5295 21.4084V7.42045Z" fill="#996DFF"/>
<path d="M119.5 24.9999H109.879C109.763 25.0015 109.648 24.9798 109.541 24.9362C109.433 24.8925 109.336 24.8279 109.254 24.7459C109.172 24.664 109.107 24.5665 109.064 24.4592C109.02 24.3519 108.999 24.237 109 24.1211V14.5C109 11.7152 110.106 9.04449 112.075 7.07537C114.045 5.10624 116.715 4 119.5 4C120.879 4 122.244 4.27159 123.518 4.79926C124.792 5.32693 125.95 6.10036 126.925 7.07537C127.9 8.05038 128.673 9.20789 129.201 10.4818C129.728 11.7557 130 13.1211 130 14.5C130 15.8788 129.728 17.2442 129.201 18.5181C128.673 19.792 127.9 20.9495 126.925 21.9246C125.95 22.8996 124.792 23.673 123.518 24.2007C122.244 24.7283 120.879 24.9999 119.5 24.9999Z" stroke="#8257E5" stroke-width="1.5" stroke-linecap="round" stroke-linejoin="round"/>
<path d="M120.953 15.5C120.953 16.3025 120.303 16.9531 119.5 16.9531C118.697 16.9531 118.047 16.3025 118.047 15.5C118.047 14.6975 118.697 14.0469 119.5 14.0469C120.303 14.0469 120.953 14.6975 120.953 15.5Z" fill="#8257E5" stroke="#8257E5" stroke-width="0.09375"/>
<path d="M114.953 15.5C114.953 16.3025 114.303 16.9531 113.5 16.9531C112.697 16.9531 112.047 16.3025 112.047 15.5C112.047 14.6975 112.697 14.0469 113.5 14.0469C114.303 14.0469 114.953 14.6975 114.953 15.5Z" fill="#8257E5" stroke="#8257E5" stroke-width="0.09375"/>
<path d="M126.953 15.5C126.953 16.3025 126.303 16.9531 125.5 16.9531C124.697 16.9531 124.047 16.3025 124.047 15.5C124.047 14.6975 124.697 14.0469 125.5 14.0469C126.303 14.0469 126.953 14.6975 126.953 15.5Z" fill="#8257E5" stroke="#8257E5" stroke-width="0.09375"/>
</svg>
